<?xml version="1.0" encoding="utf-8"?>
<!-- Generator: Adobe Illustrator 25.4.1, SVG Export Plug-In . SVG Version: 6.00 Build 0)  -->
<svg version="1.1" id="Layer_1" xmlns="http://www.w3.org/2000/svg" xmlns:xlink="http://www.w3.org/1999/xlink" x="0px" y="0px"
	 viewBox="0 0 909.4 401.73" style="enable-background:new 0 0 909.4 401.73;" xml:space="preserve">
<style type="text/css">
	.st0{fill:#414242;}
	.st1{fill:url(#SVGID_1_);}
	.st2{fill-rule:evenodd;clip-rule:evenodd;fill:#414242;}
</style>
<g>
	<path class="st0" d="M337.55,180.03c-6.24-3.39-11.33-8.54-14.64-14.82c-3.42-6.38-5.13-13.76-5.13-22.14
		c0-8.3,1.71-15.62,5.13-21.97c3.33-6.25,8.42-11.38,14.64-14.76c6.34-3.5,13.78-5.25,22.31-5.25c5.3-0.01,10.57,0.81,15.62,2.42
		c5.03,1.61,9.09,3.8,12.17,6.57l-6.57,15.34c-6.69-4.85-13.61-7.27-20.75-7.26c-6.61,0-11.69,2.09-15.22,6.28s-5.3,10.4-5.31,18.63
		c0,8.31,1.77,14.57,5.31,18.8c3.54,4.23,8.61,6.34,15.22,6.34c7.15,0,14.06-2.42,20.75-7.26l6.56,15.34
		c-3.07,2.77-7.13,4.96-12.17,6.57c-5.05,1.62-10.32,2.43-15.62,2.42C351.33,185.27,343.89,183.52,337.55,180.03z"/>
	<path class="st0" d="M421.21,180.14c-6.15-3.34-11.16-8.47-14.36-14.7c-3.35-6.38-5.02-13.84-5.02-22.37
		c0-8.53,1.69-15.95,5.07-22.26c3.25-6.17,8.24-11.24,14.36-14.59c6.19-3.43,13.47-5.15,21.85-5.15c8.38,0,15.66,1.71,21.85,5.13
		c6.1,3.33,11.06,8.41,14.24,14.59c3.3,6.31,4.96,13.72,4.96,22.26c0,8.53-1.65,15.99-4.96,22.37c-3.16,6.22-8.12,11.35-14.24,14.7
		c-6.19,3.42-13.47,5.13-21.85,5.13C434.74,185.25,427.44,183.55,421.21,180.14z M457.59,162.21c3.51-4.38,5.26-10.76,5.26-19.14
		c0-8.3-1.75-14.62-5.25-18.97c-3.5-4.34-8.32-6.52-14.47-6.52c-6.15,0-10.95,2.15-14.41,6.46c-3.46,4.31-5.19,10.64-5.19,19.02
		c0,8.45,1.73,14.85,5.19,19.2s8.26,6.52,14.41,6.52C449.27,168.78,454.09,166.59,457.59,162.21z"/>
	<path class="st0" d="M503.77,102.13h33.56c9.07,0,16.89,1.63,23.47,4.9s11.61,7.97,15.11,14.12c3.5,6.15,5.24,13.45,5.24,21.9
		c0,8.54-1.73,15.9-5.19,22.08c-3.46,6.19-8.47,10.91-15.05,14.19c-6.57,3.27-14.43,4.9-23.58,4.9h-33.56V102.13z M535.83,166.94
		c7.99,0,13.97-1.98,17.93-5.94c3.96-3.96,5.94-9.94,5.94-17.93c0-15.75-7.96-23.63-23.87-23.63h-10.37v47.5H535.83z"/>
	<path class="st0" d="M600.75,102.13h21.68v82.11h-21.68V102.13z"/>
	<path class="st0" d="M717.57,102.13v82.11h-16.03l-37.25-46.59v46.59h-20.17v-82.11h15.8l37.25,46.36v-46.36H717.57z"/>
	<path class="st0" d="M812.24,137.88v41.17c-4.7,2.1-9.64,3.65-14.7,4.61c-5.49,1.08-11.07,1.62-16.66,1.61
		c-8.92,0-16.66-1.69-23.24-5.07c-6.41-3.22-11.69-8.31-15.16-14.59c-3.54-6.34-5.31-13.86-5.31-22.55c0-8.45,1.77-15.85,5.31-22.19
		c3.44-6.25,8.65-11.35,14.98-14.64c6.46-3.43,13.99-5.14,22.6-5.14c5.67-0.03,11.32,0.74,16.77,2.31
		c5.26,1.54,9.55,3.65,12.86,6.34l-6.81,15.35c-3.77-2.46-7.4-4.25-10.9-5.36c-3.64-1.13-7.43-1.7-11.24-1.67
		c-7.3,0-12.74,2.06-16.32,6.17s-5.36,10.4-5.35,18.85c0,8.77,1.86,15.26,5.59,19.49s9.47,6.34,17.24,6.34
		c3.64,0,7.28-0.39,10.84-1.15v-15.22h-14.3v-14.64H812.24z"/>
	<path class="st0" d="M399.68,218.25v88.09h-17.2l-39.96-49.99v49.99h-21.65v-88.09h16.95l39.97,49.74v-49.74H399.68z"/>
	<path class="st0" d="M425.54,218.25h23.26v88.09h-23.26V218.25z"/>
	<path class="st0" d="M553.34,218.25v88.09h-17.2l-39.95-49.99v49.99h-21.65v-88.09h16.95l39.95,49.74v-49.74H553.34z"/>
	<path class="st0" d="M571.54,309.94c4.12,0.41,7.13,0.61,9.03,0.62c3.71,0,6.19-0.74,7.43-2.23c1.24-1.49,1.86-4.33,1.86-8.54
		v-81.54h23.26v81.17c0,10.4-2.1,18.02-6.31,22.89c-4.21,4.86-11.42,7.3-21.65,7.29c-4.56-0.04-9.11-0.41-13.61-1.11V309.94z"/>
	<path class="st0" d="M698.36,288.16h-39.1l-7.78,18.19h-23.28l41.21-88.09h18.31l41.33,88.09h-22.9L698.36,288.16z M690.81,270.72
		l-12-27.85l-12,27.84L690.81,270.72z"/>
	<path class="st0" d="M755.03,304.86c-6.43-1.73-11.67-4.08-15.71-7.05l7.3-16.46c4.25,2.7,8.85,4.81,13.67,6.25
		c4.71,1.43,9.61,2.16,14.54,2.17c4.95,0,8.74-0.68,11.38-2.04s3.96-3.28,3.96-5.76c0-2.23-1.2-4.06-3.59-5.51
		c-2.39-1.44-6.89-2.87-13.49-4.27c-8.33-1.65-14.81-3.69-19.43-6.12c-4.62-2.43-7.85-5.3-9.71-8.6c-1.86-3.3-2.78-7.3-2.78-12
		c-0.05-5.21,1.55-10.3,4.58-14.54c3.05-4.33,7.34-7.71,12.87-10.15c5.53-2.43,11.84-3.65,18.93-3.65
		c6.26-0.01,12.49,0.88,18.5,2.66c5.98,1.78,10.66,4.11,14.04,6.99l-7.18,16.46c-3.76-2.66-7.89-4.77-12.25-6.25
		c-4.14-1.42-8.49-2.15-12.87-2.17c-4.21,0-7.59,0.8-10.15,2.41c-2.56,1.61-3.84,3.77-3.84,6.5c-0.04,1.37,0.44,2.7,1.36,3.71
		c0.91,0.99,2.6,1.96,5.07,2.91c2.47,0.95,6.19,1.96,11.14,3.03c8,1.73,14.29,3.81,18.87,6.25c4.58,2.44,7.82,5.28,9.71,8.54
		c1.9,3.27,2.85,7.16,2.85,11.69c0,8.58-3.34,15.32-10.02,20.23c-6.68,4.91-16.09,7.36-28.21,7.36
		C767.98,307.45,761.4,306.58,755.03,304.86z"/>
	
		<linearGradient id="SVGID_1_" gradientUnits="userSpaceOnUse" x1="80.4514" y1="185.3361" x2="276.5172" y2="185.3361" gradientTransform="matrix(1 0 0 -1 0 389.8554)">
		<stop  offset="0" style="stop-color:#F16222"/>
		<stop  offset="0.26" style="stop-color:#F37421"/>
		<stop  offset="0.71" style="stop-color:#F68D1E"/>
		<stop  offset="1" style="stop-color:#F7981D"/>
	</linearGradient>
	<path class="st1" d="M166.47,155.66h110.05v-51.73H166.65c-17.54-1.03-35.08,3.61-50.03,12.89c-12.9,8.77-22.7,21.15-27.85,35.59
		c-5.67,17.02-8.77,34.56-8.25,52.1c-0.52,17.54,2.59,35.59,8.25,52.1c5.16,14.44,14.96,26.82,27.85,35.59
		c14.96,9.28,32.5,13.93,50.03,12.91h109.87v-57.49H166.47c-13.95,0-23.77-4.13-29.97-11.88c-6.2-7.75-9.81-19.11-9.81-34.08
		c0-30.48,12.92-45.98,39.77-45.98L166.47,155.66z"/>
	<path class="st2" d="M147.25,193.62l51.58,9.86C198.84,203.47,161,242.8,147.25,193.62z"/>
	<path class="st2" d="M268.21,193.8l-50.01,10.38C218.2,204.17,261.52,243.08,268.21,193.8z"/>
</g>
</svg>
